<svg width="147" height="48" viewBox="0 0 147 48" fill="none" xmlns="http://www.w3.org/2000/svg">
<path d="M2.16797 4.73633H10.3223C11.3184 4.73633 12.1842 4.84375 12.9199 5.05859C13.6621 5.26693 14.2773 5.55664 14.7656 5.92773C15.2539 6.29883 15.6152 6.74154 15.8496 7.25586C16.0905 7.76367 16.2109 8.3138 16.2109 8.90625C16.2109 9.8763 15.9049 10.7259 15.293 11.4551C15.9961 11.8717 16.5202 12.4121 16.8652 13.0762C17.2103 13.7402 17.3828 14.4954 17.3828 15.3418C17.3828 16.0514 17.2624 16.6927 17.0215 17.2656C16.7871 17.8385 16.4258 18.3301 15.9375 18.7402C15.4557 19.1439 14.8438 19.4564 14.1016 19.6777C13.3659 19.8926 12.4967 20 11.4941 20H2.16797V4.73633ZM11.5137 10.5957C11.7806 10.5957 12.041 10.6055 12.2949 10.625C12.7311 10.2083 12.9492 9.73307 12.9492 9.19922C12.9492 8.64583 12.7311 8.2194 12.2949 7.91992C11.8652 7.61393 11.2337 7.46094 10.4004 7.46094H5.26367V10.5957H11.5137ZM11.5723 17.3047C12.4056 17.3047 13.0371 17.1257 13.4668 16.7676C13.903 16.4095 14.1211 15.9049 14.1211 15.2539C14.1211 14.6029 13.903 14.0951 13.4668 13.7305C13.0371 13.3659 12.4056 13.1836 11.5723 13.1836H5.26367V17.3047H11.5723ZM20.1367 4.73633H23.252V20H20.1367V4.73633ZM27.1875 4.73633H30.2832L39.7949 9.7168V4.73633H42.8906V20H39.7949V12.998L30.2832 8.04688V20H27.1875V4.73633ZM52.4121 4.73633H55.6934L63.0762 20H59.8242L58.6035 17.4316H49.6875L48.5059 20H45.2441L52.4121 4.73633ZM57.3828 14.8828L54.082 7.94922L50.8691 14.8828H57.3828ZM65.4492 4.73633H73.2129C74.3848 4.73633 75.4004 4.86003 76.2598 5.10742C77.1191 5.34831 77.832 5.69987 78.3984 6.16211C78.9648 6.62435 79.3848 7.1875 79.6582 7.85156C79.9382 8.51562 80.0781 9.26758 80.0781 10.1074C80.0781 10.6738 80.0098 11.2142 79.873 11.7285C79.7363 12.2363 79.5247 12.7051 79.2383 13.1348C78.9583 13.5645 78.6035 13.9486 78.1738 14.2871C77.7441 14.6191 77.2396 14.8958 76.6602 15.1172L79.9805 20H76.1914L73.3203 15.6641H73.2324L68.5449 15.6543V20H65.4492V4.73633ZM73.291 12.9785C73.877 12.9785 74.388 12.9102 74.8242 12.7734C75.2669 12.6367 75.6348 12.4447 75.9277 12.1973C76.2272 11.9499 76.4486 11.6504 76.5918 11.2988C76.7415 10.9408 76.8164 10.5436 76.8164 10.1074C76.8164 9.25456 76.5234 8.59701 75.9375 8.13477C75.3516 7.66602 74.4694 7.43164 73.291 7.43164H68.5449V12.9785H73.291ZM88.4277 16.2207L81.7578 4.73633H85.2637L89.9609 13.418L94.5996 4.73633H98.1055L91.5234 16.2012V20H88.4277V16.2207ZM2.88086 40.459C3.43424 40.7715 3.99414 41.0547 4.56055 41.3086C5.13346 41.556 5.72591 41.7676 6.33789 41.9434C6.94987 42.1126 7.59115 42.2428 8.26172 42.334C8.9388 42.4251 9.6582 42.4707 10.4199 42.4707C11.3379 42.4707 12.1191 42.4121 12.7637 42.2949C13.4082 42.1712 13.9323 42.0052 14.3359 41.7969C14.7461 41.582 15.0423 41.3281 15.2246 41.0352C15.4134 40.7422 15.5078 40.4232 15.5078 40.0781C15.5078 39.5247 15.2767 39.0885 14.8145 38.7695C14.3522 38.444 13.6393 38.2812 12.6758 38.2812C12.2526 38.2812 11.8066 38.3105 11.3379 38.3691C10.8691 38.4212 10.3939 38.4798 9.91211 38.5449C9.43685 38.61 8.96484 38.6719 8.49609 38.7305C8.03385 38.7826 7.59766 38.8086 7.1875 38.8086C6.50391 38.8086 5.84635 38.7207 5.21484 38.5449C4.58984 38.3691 4.0332 38.1055 3.54492 37.7539C3.06315 37.4023 2.67904 36.9629 2.39258 36.4355C2.10612 35.9082 1.96289 35.293 1.96289 34.5898C1.96289 34.1732 2.01823 33.7598 2.12891 33.3496C2.24609 32.9395 2.42839 32.5488 2.67578 32.1777C2.92969 31.8001 3.25521 31.4518 3.65234 31.1328C4.04948 30.8073 4.52799 30.5273 5.08789 30.293C5.6543 30.0586 6.30534 29.8763 7.04102 29.7461C7.7832 29.6094 8.6263 29.541 9.57031 29.541C10.2539 29.541 10.9408 29.5801 11.6309 29.6582C12.321 29.7298 12.9915 29.834 13.6426 29.9707C14.3001 30.1074 14.9316 30.2734 15.5371 30.4688C16.1426 30.6576 16.7057 30.8691 17.2266 31.1035L15.8691 33.6035C15.4395 33.4147 14.9772 33.2422 14.4824 33.0859C13.9876 32.9232 13.4701 32.7832 12.9297 32.666C12.3893 32.5488 11.8294 32.4577 11.25 32.3926C10.6771 32.321 10.0911 32.2852 9.49219 32.2852C8.63932 32.2852 7.9362 32.347 7.38281 32.4707C6.83594 32.5944 6.39974 32.7539 6.07422 32.9492C5.7487 33.138 5.52083 33.3529 5.39062 33.5938C5.26693 33.8281 5.20508 34.0625 5.20508 34.2969C5.20508 34.7526 5.41016 35.127 5.82031 35.4199C6.23047 35.7064 6.85547 35.8496 7.69531 35.8496C8.03385 35.8496 8.42122 35.8268 8.85742 35.7812C9.30013 35.7292 9.76237 35.6738 10.2441 35.6152C10.7324 35.5566 11.2272 35.5046 11.7285 35.459C12.2363 35.4069 12.7279 35.3809 13.2031 35.3809C14.1016 35.3809 14.8958 35.4818 15.5859 35.6836C16.2826 35.8854 16.8652 36.1751 17.334 36.5527C17.8027 36.9238 18.1576 37.3763 18.3984 37.9102C18.6393 38.4375 18.7598 39.0299 18.7598 39.6875C18.7598 40.5664 18.5547 41.3509 18.1445 42.041C17.7409 42.7246 17.1615 43.304 16.4062 43.7793C15.6576 44.248 14.7526 44.6061 13.6914 44.8535C12.6302 45.0944 11.4486 45.2148 10.1465 45.2148C9.28711 45.2148 8.44727 45.1595 7.62695 45.0488C6.80664 44.9447 6.01888 44.7949 5.26367 44.5996C4.51497 44.3978 3.79883 44.1602 3.11523 43.8867C2.43815 43.6068 1.8099 43.3008 1.23047 42.9688L2.88086 40.459ZM22.1582 29.7363H25.2539V33.7207H34.7461V29.7363H37.8516V45H34.7461V36.3672H25.2539V45H22.1582V29.7363ZM41.2891 37.3242C41.2891 36.1719 41.5007 35.1172 41.9238 34.1602C42.347 33.2031 42.9395 32.3828 43.7012 31.6992C44.4694 31.0091 45.3874 30.4753 46.4551 30.0977C47.5293 29.7201 48.7174 29.5312 50.0195 29.5312C51.3151 29.5312 52.5 29.7201 53.5742 30.0977C54.6484 30.4753 55.5664 31.0091 56.3281 31.6992C57.0964 32.3828 57.6921 33.2031 58.1152 34.1602C58.5384 35.1172 58.75 36.1719 58.75 37.3242C58.75 38.4831 58.5384 39.5475 58.1152 40.5176C57.6921 41.4811 57.0964 42.3112 56.3281 43.0078C55.5664 43.7044 54.6484 44.248 53.5742 44.6387C52.5 45.0228 51.3151 45.2148 50.0195 45.2148C48.7174 45.2148 47.5293 45.0228 46.4551 44.6387C45.3874 44.248 44.4694 43.7044 43.7012 43.0078C42.9395 42.3112 42.347 41.4811 41.9238 40.5176C41.5007 39.5475 41.2891 38.4831 41.2891 37.3242ZM44.3848 37.3242C44.3848 38.112 44.5247 38.8216 44.8047 39.4531C45.0911 40.0846 45.485 40.625 45.9863 41.0742C46.4941 41.5169 47.0898 41.8587 47.7734 42.0996C48.4635 42.3405 49.2122 42.4609 50.0195 42.4609C50.8268 42.4609 51.5723 42.3405 52.2559 42.0996C52.946 41.8587 53.5417 41.5169 54.043 41.0742C54.5443 40.625 54.9382 40.0846 55.2246 39.4531C55.5111 38.8216 55.6543 38.112 55.6543 37.3242C55.6543 36.5365 55.5111 35.8301 55.2246 35.2051C54.9382 34.5801 54.5443 34.0527 54.043 33.623C53.5417 33.1868 52.946 32.8548 52.2559 32.627C51.5723 32.3991 50.8268 32.2852 50.0195 32.2852C49.2122 32.2852 48.4635 32.3991 47.7734 32.627C47.0898 32.8548 46.4941 33.1868 45.9863 33.623C45.485 34.0527 45.0911 34.5801 44.8047 35.2051C44.5247 35.8301 44.3848 36.5365 44.3848 37.3242ZM62.1875 29.7363H70.2344C71.4062 29.7363 72.4219 29.8633 73.2812 30.1172C74.1406 30.3711 74.8535 30.7389 75.4199 31.2207C75.9863 31.696 76.4062 32.2786 76.6797 32.9688C76.9596 33.6589 77.0996 34.4368 77.0996 35.3027C77.0996 36.1165 76.9629 36.8685 76.6895 37.5586C76.416 38.2487 75.9961 38.8477 75.4297 39.3555C74.8698 39.8568 74.1602 40.2507 73.3008 40.5371C72.4414 40.8171 71.4258 40.957 70.2539 40.957L65.2832 40.9473V45H62.1875V29.7363ZM70.3125 38.2715C70.8984 38.2715 71.4095 38.2031 71.8457 38.0664C72.2884 37.9232 72.6562 37.7246 72.9492 37.4707C73.2487 37.2103 73.4701 36.8978 73.6133 36.5332C73.763 36.1621 73.8379 35.752 73.8379 35.3027C73.8379 34.3978 73.5417 33.6947 72.9492 33.1934C72.3633 32.6855 71.4844 32.4316 70.3125 32.4316H65.2832V38.2715H70.3125Z" fill="white"/>
<path d="M124.5 33.4153C122.898 32.7288 121.602 31.5848 120.61 30.3644C119.466 28.9916 118.703 27.4661 118.246 26.2458C117.788 25.1017 117.559 24.2627 117.559 24.2627C117.559 24.2627 120.229 23.5 120.992 25.7882C121.22 26.5509 121.907 27.6187 122.746 28.6865C123.661 29.7543 124.805 30.7458 125.949 31.1272L130.525 32.5001L129.458 35.0932L124.5 33.4153ZM130.602 32.5L135.178 33.8729C133.652 36.6949 131.364 35.7034 131.364 35.7034L129.534 35.0932L130.602 32.5Z" fill="#80D6FA"/>
<path d="M131.364 12.8221H132.127C132.127 12.8221 135.178 12.4407 135.178 10.5339C135.178 8.62717 132.127 8.24579 132.127 8.24579H131.364H126.788V12.8221H131.364ZM118.475 14.3474C119.085 13.5847 119.237 12.822 120 12.822H122.288V8.2457H120C119.314 8.2457 119.085 7.48302 118.475 6.72025C118.475 6.72025 116.186 7.48293 116.186 10.5338C116.186 11.144 116.263 11.6779 116.415 12.1355C116.263 11.6779 116.186 11.144 116.186 10.5338C116.186 7.48302 118.475 6.72025 118.475 6.72025C117.864 5.95756 116.873 5.19479 114.661 5.19479H110.847C107.873 5.19479 105.509 7.55917 105.509 10.5337C105.509 13.5083 107.873 15.8729 110.847 15.8729H114.661C116.873 15.8729 117.864 15.1102 118.475 14.3474ZM122.212 12.8221H126.788V8.24579H122.212V12.8221V12.8221Z" fill="#AAB1BA"/>
<path d="M133.958 42.5678H102.381V44.8559C102.381 45.3136 102.763 45.6186 103.144 45.6186H132.127L133.576 43.2542L133.652 43.3305L135.941 45.6186H145.093C145.932 45.6186 146.619 44.9322 146.619 44.0932V41.805H134.415L133.958 42.5678Z" fill="#ECF4F7"/>
<path d="M130.602 1.38139C139.754 1.38139 146.619 4.50853 146.619 10.5339C146.619 16.6356 139.754 19.6865 130.602 19.6865C126.025 19.6865 110.771 18.9238 110.771 18.9238C106.653 18.9238 102.381 15.5678 102.381 10.5339C102.381 5.50003 105.966 2.14407 110.771 2.14407C110.771 2.14407 126.025 1.38139 130.602 1.38139ZM126.788 8.24579H122.212H119.924C119.237 8.24579 119.008 7.48311 118.398 6.72034C117.788 5.95756 116.797 5.19488 114.585 5.19488H110.771C107.797 5.19488 105.432 7.55926 105.432 10.5338C105.432 13.5084 107.797 15.8729 110.771 15.8729H114.585C116.873 15.8729 117.864 15.1102 118.398 14.3474C119.009 13.5847 119.161 12.822 119.924 12.822H122.212H126.788H131.364H132.127C132.127 12.822 135.178 12.4406 135.178 10.5338C135.178 8.62708 132.127 8.2457 132.127 8.2457H131.364H126.788V8.24579ZM146.619 41.805H134.415L133.958 42.5677H102.381C102.381 38.2965 102.381 29.6016 102.381 29.6016C102.381 28.6101 103.678 28.6101 104.67 29.6016C105.661 30.5931 107.797 31.2795 110.771 30.5931C116.11 37.3049 129.076 39.593 129.076 39.593L131.364 35.7795C131.364 35.7795 133.653 36.771 135.178 33.949L141.28 35.7795C144.33 36.4661 146.619 38.7542 146.619 41.805Z" fill="#80D6FA"/>
<path d="M131.364 35.7034L129.076 39.517C129.076 39.517 116.11 37.2288 110.771 30.517C112.373 30.1356 114.127 29.373 116.11 28.0763C116.11 28.0763 117.33 27.3899 118.322 26.2458C118.78 27.4661 119.542 28.9916 120.686 30.3644C121.678 31.5848 122.898 32.6526 124.576 33.4153L129.61 35.0932L131.364 35.7034Z" fill="#AAB1BA"/>
<path d="M135.178 46C134.949 46 134.797 45.8474 134.797 45.6186C134.797 45.3898 134.949 45.2372 135.178 45.2372H145.093C145.78 45.2372 146.237 44.7796 146.237 44.0932V42.1864H134.644L132.432 45.8474C132.356 45.9237 132.203 46 132.127 46H103.144C102.534 46 102 45.4661 102 44.8559V29.6017C102 29.4491 102.076 29.3729 102.153 29.2966C102.686 28.9152 103.983 28.3814 104.975 29.2966C105.737 30.0593 107.72 30.8983 110.619 30.2119C110.695 30.2119 110.695 30.1356 110.771 30.1356C112.22 29.7542 113.975 28.9916 115.881 27.6949C116.034 27.5424 116.263 27.6187 116.415 27.7712C116.568 27.9237 116.491 28.1526 116.339 28.305C114.585 29.4491 112.983 30.2118 111.458 30.6694C116.415 36.3135 127.093 38.6779 128.924 38.9829L130.83 35.7795L129.534 35.322C129.534 35.322 129.534 35.322 129.458 35.322L124.424 33.6441H124.348C118.932 31.2797 117.331 24.4915 117.254 24.2627C117.178 24.0339 117.331 23.8813 117.483 23.8051C118.551 23.5 120.687 23.5 121.373 25.5594C121.907 27.1611 124.043 29.9831 126.102 30.6695L130.678 32.0424L135.254 33.4153L141.356 35.2458C144.712 36.0848 146.924 38.6017 146.924 41.7288V44.0169C146.924 45.0847 146.085 45.9237 145.017 45.9237L135.178 46ZM102.763 42.9491V44.8558C102.763 45.0847 102.991 45.2372 103.144 45.2372H131.898L134.11 41.5762C134.186 41.5 134.339 41.4236 134.415 41.4236H146.237C146.085 38.9067 144.102 36.7711 141.203 36.0847L135.331 34.3304C134.034 36.466 132.203 36.3135 131.517 36.1609L129.381 39.7457C129.305 39.8983 129.153 39.9745 129 39.8983C128.466 39.822 116.034 37.5339 110.619 30.9746C107.797 31.5848 105.585 31.0508 104.364 29.9067C103.754 29.2965 103.068 29.6779 102.763 29.8305V42.2627H130.602C130.83 42.2627 130.983 42.4152 130.983 42.644C130.983 42.8729 130.83 43.0254 130.602 43.0254H102.763V42.9491ZM131.517 35.322C131.822 35.3983 133.347 35.9322 134.568 34.0254L130.83 32.8813L130.068 34.7881L131.517 35.322ZM125.11 33.1864L129.381 34.6356L130.144 32.7288L126.254 31.5848L125.11 33.1864ZM121.22 30.4407C122.059 31.4322 123.127 32.3474 124.424 32.9576L125.492 31.3559C124.5 30.8983 123.585 30.1356 122.822 29.2204L121.22 30.4407ZM118.093 24.5678C118.322 25.483 119.085 27.7712 120.686 29.9067L122.212 28.6864C121.449 27.6949 120.839 26.7033 120.61 26.0169C120.229 24.4152 118.78 24.4915 118.093 24.5678ZM130.602 20.0678C126.102 20.0678 110.924 19.3051 110.771 19.3051C106.576 19.3051 102 15.9491 102 10.5339C102 5.34745 105.585 1.76268 110.771 1.76268C110.924 1.76268 126.102 1 130.602 1C140.746 1 147 4.66101 147 10.5339C147 16.4068 140.746 20.0678 130.602 20.0678ZM130.602 1.76268C126.102 1.76268 110.924 2.52536 110.771 2.52536C106.042 2.52536 102.763 5.80499 102.763 10.5338C102.763 15.4915 106.958 18.5423 110.771 18.5423C110.924 18.5423 126.102 19.305 130.602 19.305C140.212 19.305 146.237 15.949 146.237 10.5338C146.237 5.11864 140.288 1.76268 130.602 1.76268ZM135.178 16.2543C135.025 16.2543 134.873 16.178 134.797 16.0254C133.958 13.5847 132.89 13.2034 132.127 13.2034C132.127 13.2034 132.127 13.2034 132.051 13.2034H131.746V14.3475C131.746 14.5763 131.593 14.7289 131.364 14.7289C131.136 14.7289 130.983 14.5763 130.983 14.3475V13.2034H127.169V14.3475C127.169 14.5763 127.017 14.7289 126.788 14.7289C126.559 14.7289 126.407 14.5763 126.407 14.3475V13.2034H122.593V14.3475C122.593 14.5763 122.441 14.7289 122.212 14.7289C121.983 14.7289 121.83 14.5763 121.83 14.3475V13.2034H119.924C119.695 13.2034 119.542 13.4323 119.161 13.8899C118.551 14.8051 117.712 16.2543 114.585 16.2543H110.771C107.644 16.2543 105.051 13.6611 105.051 10.5339C105.051 7.40678 107.644 4.81359 110.771 4.81359H114.585C117.712 4.81359 118.627 6.18647 119.161 7.17796C119.466 7.71183 119.619 7.8644 119.924 7.8644H121.83V6.72034C121.83 6.49152 121.983 6.33895 122.212 6.33895C122.441 6.33895 122.593 6.49152 122.593 6.72034V7.8644H126.407V6.72034C126.407 6.49152 126.559 6.33895 126.788 6.33895C127.017 6.33895 127.169 6.49152 127.169 6.72034V7.8644H130.983V6.72034C130.983 6.49152 131.136 6.33895 131.364 6.33895C131.593 6.33895 131.746 6.49152 131.746 6.72034V7.8644H132.127C132.966 7.8644 133.958 7.55935 134.797 5.0424C134.873 4.81359 135.102 4.73735 135.254 4.81359C135.483 4.88983 135.559 5.11864 135.483 5.27121C135.025 6.72033 134.339 7.71192 133.576 8.16955C134.492 8.55093 135.559 9.23737 135.559 10.4577C135.559 11.7543 134.568 12.4408 133.576 12.7458C134.415 13.2034 135.025 14.1949 135.483 15.6441C135.559 15.873 135.407 16.0255 135.254 16.1018C135.254 16.2543 135.254 16.2543 135.178 16.2543ZM110.771 5.57627C108.025 5.57627 105.813 7.78816 105.813 10.5339C105.813 13.2797 108.025 15.4916 110.771 15.4916H114.585C116.339 15.4916 117.254 15.0339 117.788 14.5001C117.025 14.0425 115.729 12.9746 115.729 10.534C115.729 8.09339 117.102 7.02557 117.788 6.56794C117.254 6.03389 116.339 5.57627 114.585 5.57627H110.771ZM118.322 7.17796C117.788 7.48302 116.491 8.32203 116.491 10.5339C116.491 12.7458 117.788 13.5847 118.322 13.8899C118.398 13.7373 118.475 13.6611 118.551 13.5085C118.856 12.9746 119.237 12.4407 119.924 12.4407H121.83V8.62708H119.924C119.237 8.62708 118.856 8.09322 118.551 7.55926C118.475 7.40678 118.398 7.33053 118.322 7.17796ZM131.746 12.4407H132.127C132.127 12.4407 134.797 12.1356 134.797 10.5339C134.797 9.00847 132.203 8.62717 132.051 8.62717H131.746V12.4407ZM127.169 12.4407H130.983V8.62708H127.169V12.4407ZM122.593 12.4407H126.407V8.62708H122.593V12.4407Z" fill="#51565F"/>
</svg>
